<?xml version="1.0" encoding="utf-8"?>
<!-- Generator: Adobe Illustrator 24.1.0, SVG Export Plug-In . SVG Version: 6.00 Build 0)  -->
<svg version="1.1" id="Isolation_Mode" xmlns="http://www.w3.org/2000/svg" xmlns:xlink="http://www.w3.org/1999/xlink" x="0px"
	 y="0px" viewBox="0 0 69.1 23.5" style="enable-background:new 0 0 69.1 23.5;" xml:space="preserve">
<style type="text/css">
	.st0{fill:#ABC123;}
	.st1{fill:#AAC138;}
	.st2{fill:#FFFFFF;}
</style>
<g>
	<path class="st0" d="M10.1,16.1c-0.3-1.8-0.6-3.5-0.8-5.2c-0.9,0.4-1.8,0.8-2.7,1.4c-0.4,0.3-0.8,0.6-1.2,0.8
		c-0.3,0.1-0.6,0.2-1,0.3c-0.1,0-0.3,0.2-0.5,0.1c-0.3-0.1-0.5-0.3-0.7-0.2c0-0.1,0.1-0.1,0.1-0.1c-0.1,0-0.2-0.2-0.4-0.3
		c0-0.1,0.1,0,0.1-0.1c-0.1-0.1-0.2-0.2-0.1-0.3c-0.1-0.1-0.2-0.2-0.4-0.2c0-0.2,0-0.3,0-0.5c0.7-1.2,1.7-1.4,2.6-1.9
		c0.5-0.3,1.1-0.5,1.7-0.8c0.6-0.4,1.5-0.7,2.2-1C8.9,7.2,8.8,6.5,8.7,5.8C8.9,6,8.7,6.3,9,6.6c0-0.2,0,0,0.1-0.1v0
		C9.1,6.4,9,6.1,8.9,6C8.9,5.9,9,5.7,9,5.6C8.9,4.9,8.6,4.3,8.7,3.7C8.5,3.6,8.6,3.4,8.5,3.2C8.4,2.6,8.3,2,8.3,1.3
		c0-0.3-0.1-0.5-0.1-0.8C3.4,2,0,6.5,0,11.7c0,6.5,5.2,11.7,11.7,11.7C11,21,10.5,18.4,10.1,16.1 M8.7,5.3c0,0.1,0.1,0.3,0,0.4
		C8.7,5.6,8.6,5.3,8.7,5.3 M8.6,4.7C8.5,4.8,8.5,4.7,8.6,4.7C8.3,4.6,8.8,4.3,8.6,4.7 M8.5,4.2c0,0.1,0,0.1,0,0.2
		C8.4,4.4,8.4,4.3,8.5,4.2 M8.4,4C8.5,4,8.5,4.1,8.4,4C8.2,2.9,8,1.9,7.8,0.8C8.2,1.7,8.2,2.9,8.4,4"/>
	<path class="st1" d="M15,6.6C14.9,6.6,14.9,6.6,15,6.6C14.9,6.6,15,6.6,15,6.6"/>
	<path class="st1" d="M15.9,8.7c-0.1,0-0.3,0-0.3,0.1C15.7,8.7,15.9,8.8,15.9,8.7"/>
	<path class="st0" d="M11.7,0c-0.5,0-0.9,0-1.3,0.1c0.4,1.7,0.7,3.4,1.1,5.2c0.1,0.6,0.2,1.2,0.3,1.8C12.3,7,13,7,13.6,6.9
		c0.5-0.1,0.9-0.2,1.3-0.3c0,0,0,0,0,0c0.2-0.1,0.4,0.1,0.7,0c-0.2-0.1,0-0.1,0.2-0.1c0,0.1,0,0.1,0,0.2c0.6,0,1.3-0.3,1.8-0.1
		c0,0,0-0.1,0.1-0.1c0,0,0,0,0,0h0c0,0,0,0,0,0c0.8-0.1,1.7-0.3,2.5-0.3c-0.1,0-0.2,0-0.3,0c-0.4,0-1,0.1-1.5,0.1
		c0.5,0.2,0.9,0,1.5,0.1c-0.4,0.3-1,0.1-1.6,0.4c0.4,0,0.8-0.1,1-0.2c0.3,0,0.8,0,1.2,0c0,0.1-0.1,0-0.1,0.1c0,0.2,0.2,0.1,0.3,0.2
		c-0.2,0.1-0.5,0.2-0.7,0.3c0,0.1,0.2,0,0.2,0c-0.3,0.2-0.7,0.1-1.1,0.4c-0.1,0.1-0.2,0.3-0.3,0.3c-0.4,0.2-0.8,0.1-1.2,0.2
		c-0.6,0.1-1.2,0.3-1.8,0.3c0.1,0.1,0.2-0.1,0.3,0c-0.5,0.2-0.9,0.3-1.5,0.4c-0.5,0.1-1,0.2-1.4,0.3c-0.4,0.1-0.8,0.2-1.2,0.3
		c0.1,0.6,0.2,1.2,0.3,1.9c0.5,2.8,0.7,5,1.3,7.7c0.3,1.2,0.5,2.5,0.8,3.7c5-1.3,8.8-5.9,8.8-11.4C23.3,5.3,18.1,0,11.7,0 M16.1,6.5
		c0-0.1,0.1,0,0.1-0.1C16.3,6.5,16.2,6.6,16.1,6.5"/>
	<polygon class="st2" points="25,0.1 30.4,0.1 30.4,2 27.1,2 27.1,3.8 29.8,3.8 29.8,5.7 27.1,5.7 27.1,9 25,9 	"/>
	<path class="st2" d="M34.7,7.1h-2.8L31.4,9h-2.2l3-8.9h2.3l3,8.8h-2.2L34.7,7.1z M33.3,2.1c0,0-0.2,1-0.4,1.5l-0.5,1.7h1.7
		l-0.5-1.7C33.5,3.1,33.3,2.1,33.3,2.1L33.3,2.1z"/>
	<rect x="37.2" y="0.1" class="st2" width="2.2" height="8.9"/>
	<polygon class="st2" points="41.9,2 39.2,2 39.2,0.1 46.7,0.1 46.7,2 44,2 44,9 41.9,9 	"/>
	<polygon class="st2" points="46.6,0.1 48.7,0.1 48.7,3.7 51.9,3.7 51.9,0.1 54.1,0.1 54.1,9 51.9,9 51.9,5.5 48.7,5.5 48.7,9 
		46.6,9 	"/>
	<path class="st2" d="M27.4,10.1c1.4,0,2.1,0.7,2.1,0.7l-0.2,0.3c0,0-0.7-0.7-1.9-0.7c-1.5,0-2.6,1.2-2.6,2.7s1.1,2.8,2.6,2.8
		c1.3,0,2-0.8,2-0.8l0.2,0.3c0,0-0.8,0.9-2.2,0.9c-1.7,0-3-1.4-3-3.1S25.8,10.1,27.4,10.1"/>
	<path class="st2" d="M32.8,10.1c1.7,0,3,1.3,3,3c0,1.8-1.3,3.1-3,3.1s-3-1.4-3-3.1C29.8,11.4,31.1,10.1,32.8,10.1 M32.8,15.9
		c1.5,0,2.6-1.2,2.6-2.8c0-1.5-1.2-2.7-2.6-2.7c-1.5,0-2.6,1.2-2.6,2.7C30.2,14.7,31.3,15.9,32.8,15.9"/>
	<path class="st2" d="M36.7,10.2h0.4l1.7,3.8c0.1,0.3,0.3,0.7,0.3,0.7h0c0,0,0.1-0.4,0.3-0.7l1.7-3.8h0.4l0.5,6h-0.4l-0.4-4.6
		c0-0.3,0-0.8,0-0.8h0c0,0-0.2,0.5-0.3,0.8L39.3,15h-0.4l-1.6-3.4c-0.1-0.3-0.3-0.8-0.3-0.8h0c0,0,0,0.5,0,0.8l-0.4,4.6h-0.4
		L36.7,10.2z"/>
	<path class="st2" d="M43.1,10.2h0.4l1.7,3.8c0.1,0.3,0.3,0.7,0.3,0.7h0c0,0,0.1-0.4,0.3-0.7l1.7-3.8h0.4l0.5,6H48l-0.4-4.6
		c0-0.3,0-0.8,0-0.8h0c0,0-0.2,0.5-0.3,0.8L45.6,15h-0.4l-1.6-3.4c-0.1-0.3-0.3-0.8-0.3-0.8h0c0,0,0,0.5,0,0.8L43,16.2h-0.4
		L43.1,10.2z"/>
	<path class="st2" d="M49.1,10.2h0.4v3.9c0,1.1,0.7,1.8,1.8,1.8s1.9-0.7,1.9-1.8v-3.9h0.4v3.9c0,1.3-0.9,2.2-2.2,2.2
		c-1.3,0-2.2-0.8-2.2-2.2V10.2z"/>
	<path class="st2" d="M54.4,10.2h0.3l3.4,4.7c0.2,0.3,0.5,0.7,0.5,0.7h0c0,0,0-0.5,0-0.7v-4.7H59v6h-0.3l-3.4-4.7
		c-0.2-0.3-0.5-0.7-0.5-0.7h0c0,0,0,0.5,0,0.7v4.7h-0.4L54.4,10.2L54.4,10.2z"/>
	<rect x="60" y="10.2" class="st2" width="0.4" height="6"/>
	<polygon class="st2" points="62.5,10.5 60.3,10.5 60.3,10.2 65.1,10.2 65.1,10.5 62.9,10.5 62.9,16.2 62.5,16.2 	"/>
	<path class="st2" d="M66.7,13.6l-2-3.4h0.4l1.4,2.4c0.2,0.3,0.4,0.7,0.4,0.7h0c0,0,0.2-0.4,0.4-0.7l1.4-2.4h0.4l-2,3.4v2.6h-0.4
		L66.7,13.6L66.7,13.6z"/>
	<path class="st2" d="M27.5,17.3c1.4,0,2.1,0.7,2.1,0.7l-0.2,0.3c0,0-0.7-0.7-1.9-0.7c-1.4,0-2.6,1.2-2.6,2.7s1.1,2.8,2.6,2.8
		c1.3,0,2-0.8,2-0.8l0.2,0.3c0,0-0.8,0.9-2.2,0.9c-1.7,0-3-1.4-3-3.1C24.5,18.6,25.8,17.3,27.5,17.3"/>
	<polygon class="st2" points="30.7,17.4 31.1,17.4 31.1,20.2 34.8,20.2 34.8,17.4 35.2,17.4 35.2,23.4 34.8,23.4 34.8,20.5 
		31.1,20.5 31.1,23.4 30.7,23.4 	"/>
	<path class="st2" d="M36.6,17.4H37v3.9c0,1.1,0.7,1.8,1.8,1.8c1.1,0,1.8-0.7,1.8-1.8v-3.9H41v3.9c0,1.3-0.9,2.1-2.2,2.1
		s-2.2-0.8-2.2-2.1V17.4z"/>
	<path class="st2" d="M42.3,17.4h1.7c0.6,0,0.8,0,1.1,0.2c0.5,0.2,0.8,0.7,0.8,1.4c0,0.8-0.5,1.5-1.2,1.6v0c0,0,0,0.1,0.1,0.2
		l1.3,2.5h-0.4l-1.4-2.6h-1.7v2.6h-0.4L42.3,17.4L42.3,17.4z M44.3,20.4c0.8,0,1.3-0.6,1.3-1.4c0-0.5-0.3-1-0.7-1.2
		c-0.2-0.1-0.4-0.1-0.8-0.1h-1.3v2.6H44.3z"/>
	<path class="st2" d="M49.8,17.4c1.4,0,2.1,0.7,2.1,0.7l-0.2,0.3c0,0-0.7-0.7-1.9-0.7c-1.4,0-2.6,1.2-2.6,2.7c0,1.5,1.1,2.8,2.6,2.8
		c1.3,0,2-0.8,2-0.8l0.2,0.3c0,0-0.8,0.9-2.2,0.9c-1.7,0-3-1.4-3-3.1C46.9,18.6,48.2,17.4,49.8,17.4"/>
	<polygon class="st2" points="53.6,17.4 53.9,17.4 53.9,20.2 57.7,20.2 57.7,17.4 58,17.4 58,23.4 57.7,23.4 57.7,20.6 53.9,20.6 
		53.9,23.4 53.6,23.4 	"/>
</g>
</svg>
